<svg xmlns="http://www.w3.org/2000/svg" xmlns:xlink="http://www.w3.org/1999/xlink" viewBox="1 1 176 176"><style>.B{clip-path:url(#C)}.C{fill:#3e2723}.D{fill-opacity:.15}.E{fill-opacity:.2}</style><defs><circle id="A" cx="96" cy="96" r="88"/><path id="B" d="M8 184h84l39-39v-29H61L8 24z"/></defs><clipPath id="C"><use xlink:href="#A"/></clipPath><g class="B" transform="translate(-7 -7)"><path d="M22 8v108h39l35-60h88V8z" fill="#db4437"/><linearGradient id="D" x1="29.3" x2="81.8" y1="75" y2="44.4" gradientUnits="userSpaceOnUse"><stop stop-color="#a52714" stop-opacity=".6" offset="0"/><stop stop-color="#a52714" stop-opacity="0" offset=".7"/></linearGradient><path d="M22 8v108h39l35-60h88V8z" fill="url(#D)"/><path d="M62 116L22 47v1l39 68z" class="C D"/><use xlink:href="#B" fill="#0f9d58"/><linearGradient id="E" x1="110.9" x2="52.5" y1="164.5" y2="130.3" gradientUnits="userSpaceOnUse"><stop stop-color="#055524" stop-opacity=".4" offset="0"/><stop stop-color="#055524" stop-opacity="0" offset=".3"/></linearGradient><path d="M8 184h84l39-39v-29H61L8 24z" fill="url(#E)"/><path d="M130 117h-1l-38 67h1l38-67z" fill="#263238" class="D"/><defs><path id="F" d="M8 184h84l39-39v-29H61L8 24z"/></defs><clipPath id="G"><use xlink:href="#F"/></clipPath><g clip-path="url(#G)"><path d="M96 56l35 60-39 68h92V56z" fill="#ffcd40"/><linearGradient id="H" x1="121.9" x2="136.6" y1="49.8" y2="114.1" gradientUnits="userSpaceOnUse"><stop stop-color="#ea6100" stop-opacity=".3" offset="0"/><stop stop-color="#ea6100" stop-opacity="0" offset=".7"/></linearGradient><path d="M96 56l35 60-39 68h92V56z" fill="url(#H)"/></g><path d="M96 56l35 60-39 68h92V56z" fill="#ffcd40"/><path d="M96 56l35 60-39 68h92V56z" fill="url(#H)"/><defs><path id="I" d="M96 56l35 60-39 68h92V56z"/></defs><clipPath id="J"><use xlink:href="#I"/></clipPath><g clip-path="url(#J)"><path d="M22 8v108h39l35-60h88V8z" fill="#db4437"/><path d="M22 8v108h39l35-60h88V8z" fill="url(#D)"/></g></g><radialGradient id="K" cx="668.2" cy="56" r="84.1" gradientTransform="translate(-576)" gradientUnits="userSpaceOnUse"><stop stop-color="#3e2723" stop-opacity=".2" offset="0"/><stop stop-color="#3e2723" stop-opacity="0" offset="1"/></radialGradient><path d="M96 56v21l78-21z" fill="url(#K)" class="B" transform="translate(-7 -7)"/><g class="B" transform="translate(-7 -7)"><defs><path id="L" d="M22 8v40l39 68 35-60h88V8z"/></defs><clipPath id="M"><use xlink:href="#L"/></clipPath><g clip-path="url(#M)"><use xlink:href="#B" fill="#0f9d58"/><path d="M8 184h84l39-39v-29H61L8 24z" fill="url(#E)"/></g></g><radialGradient id="N" cx="597.9" cy="48.5" r="78" gradientTransform="translate(-576)" gradientUnits="userSpaceOnUse"><stop stop-color="#3e2723" stop-opacity=".2" offset="0"/><stop stop-color="#3e2723" stop-opacity="0" offset="1"/></radialGradient><path transform="translate(-7 -7)" d="M22 48l57 58-18 10z" fill="url(#N)" class="B"/><radialGradient id="O" cx="671.8" cy="96.1" r="87.9" gradientTransform="translate(-576)" gradientUnits="userSpaceOnUse"><stop stop-color="#263238" stop-opacity=".2" offset="0"/><stop stop-color="#263238" stop-opacity="0" offset="1"/></radialGradient><g><path d="M92 184l21-78 18 10z" fill="url(#O)" class="B" transform="translate(-7 -7)"/><g class="B" transform="translate(-7 -7)"><circle cx="96" cy="96" r="40" fill="#f1f1f1"/><circle cx="96" cy="96" r="32" fill="#4285f4"/><path d="M96 55c-22 0-40 18-40 40v1c0-22 18-40 40-40h88v-1H96z" class="C E"/><path d="M131 116a40 40 0 01-70 0L8 24v1l53 92a40 40 0 0070 0v-1z" fill="#fff" fill-opacity=".1"/><path d="M97 56a40 40 0 010 80 40 40 0 100-80z" opacity=".1" class="C"/><path d="M131 117c3-6 5-12 5-20a40 40 0 00-1-12 40 40 0 01-4 31l-39 68h1l38-67z" fill="#fff" class="E"/><path d="M96 9c48 0 88 39 88 88v-1A88 88 0 008 96v1C8 48 48 9 96 9z" fill="#fff" class="E"/><path d="M96 183c48 0 88-39 88-87A88 88 0 018 96c0 48 40 87 88 87z" class="C D"/></g></g></svg>